{"cells":[{"cell_type":"code","execution_count":null,"metadata":{"id":"-pEeSRV2nA4S"},"outputs":[],"source":["from ipywidgets import interact, interactive, fixed, interact_manual\n","import ipywidgets as widgets\n","import glob\n","\n","import numpy as np # linear algebra\n","import pandas as pd # data processing, CSV file I/O (e.g. pd.read_csv)\n","import os\n","import matplotlib.pyplot as plt\n","from PIL import Image\n","import numpy as np\n","\n","from torchvision.utils import draw_bounding_boxes\n","from torchvision.io import read_image\n","import torchvision\n","import torch"]},{"cell_type":"code","execution_count":1,"metadata":{"colab":{"base_uri":"https://localhost:8080/"},"executionInfo":{"elapsed":27196,"status":"ok","timestamp":1662348320139,"user":{"displayName":"Viet-Tham Huynh","userId":"03444116876260486916"},"user_tz":-420},"id":"hgeQYlPBU6xF","outputId":"ce7b637d-9c21-45b5-c4d6-6a82a5cdf410"},"outputs":[{"name":"stdout","output_type":"stream","text":["Mounted at /content/drive\n"]}],"source":["from google.colab import drive\n","drive.mount('/content/drive')"]},{"cell_type":"code","execution_count":2,"metadata":{"colab":{"base_uri":"https://localhost:8080/"},"executionInfo":{"elapsed":27601,"status":"ok","timestamp":1662348352348,"user":{"displayName":"Viet-Tham Huynh","userId":"03444116876260486916"},"user_tz":-420},"id":"08c40KYcqlw4","outputId":"7beb37e5-30b8-4191-aebe-b56055ad61ad"},"outputs":[{"name":"stdout","output_type":"stream","text":["Cloning into 'Yolov5_StrongSORT_OSNet'...\n","remote: Enumerating objects: 1764, done.\u001b[K\n","remote: Counting objects: 100% (126/126), done.\u001b[K\n","remote: Compressing objects: 100% (64/64), done.\u001b[K\n","remote: Total 1764 (delta 72), reused 108 (delta 62), pack-reused 1638\u001b[K\n","Receiving objects: 100% (1764/1764), 36.08 MiB | 13.99 MiB/s, done.\n","Resolving deltas: 100% (908/908), done.\n","Submodule 'strong_sort/deep/reid' (https://github.com/KaiyangZhou/deep-person-reid) registered for path 'strong_sort/deep/reid'\n","Submodule 'yolov5' (https://github.com/ultralytics/yolov5.git) registered for path 'yolov5'\n","Cloning into '/content/Yolov5_StrongSORT_OSNet/strong_sort/deep/reid'...\n","remote: Enumerating objects: 9860, done.        \n","remote: Counting objects: 100% (10/10), done.        \n","remote: Compressing objects: 100% (9/9), done.        \n","remote: Total 9860 (delta 1), reused 9 (delta 1), pack-reused 9850        \n","Receiving objects: 100% (9860/9860), 9.57 MiB | 13.96 MiB/s, done.\n","Resolving deltas: 100% (7286/7286), done.\n","Cloning into '/content/Yolov5_StrongSORT_OSNet/yolov5'...\n","remote: Enumerating objects: 12187, done.        \n","remote: Counting objects: 100% (63/63), done.        \n","remote: Compressing objects: 100% (57/57), done.        \n","remote: Total 12187 (delta 30), reused 24 (delta 6), pack-reused 12124        \n","Receiving objects: 100% (12187/12187), 12.63 MiB | 3.98 MiB/s, done.\n","Resolving deltas: 100% (8375/8375), done.\n","Submodule path 'strong_sort/deep/reid': checked out '4a0793780bd13f53ec2ca753a94dcef62dc9e955'\n","Submodule path 'yolov5': checked out '91a81d48fa4e34dbdbaf0e45a1f841c11216aab5'\n","/content/Yolov5_StrongSORT_OSNet\n","\u001b[K     |████████████████████████████████| 5.9 MB 25.8 MB/s \n","\u001b[K     |████████████████████████████████| 61 kB 507 kB/s \n","\u001b[K     |████████████████████████████████| 190 kB 74.4 MB/s \n","\u001b[K     |████████████████████████████████| 42 kB 1.2 MB/s \n","\u001b[K     |████████████████████████████████| 181 kB 66.9 MB/s \n","\u001b[K     |████████████████████████████████| 66 kB 4.5 MB/s \n","\u001b[K     |████████████████████████████████| 41 kB 429 kB/s \n","\u001b[K     |████████████████████████████████| 61 kB 386 kB/s \n","\u001b[K     |████████████████████████████████| 61 kB 518 kB/s \n","\u001b[K     |████████████████████████████████| 61 kB 361 kB/s \n","\u001b[K     |████████████████████████████████| 61 kB 282 kB/s \n","\u001b[K     |████████████████████████████████| 64 kB 2.9 MB/s \n","\u001b[K     |████████████████████████████████| 42 kB 881 kB/s \n","\u001b[K     |████████████████████████████████| 64 kB 2.7 MB/s \n","\u001b[K     |████████████████████████████████| 73 kB 1.5 MB/s \n","\u001b[K     |████████████████████████████████| 68 kB 6.9 MB/s \n","\u001b[K     |████████████████████████████████| 41 kB 617 kB/s \n","\u001b[K     |████████████████████████████████| 63 kB 1.8 MB/s \n","\u001b[?25hSetup complete. Using torch 1.12.1+cu113 (Tesla T4)\n"]}],"source":["!git clone --recurse-submodules https://github.com/mikel-brostrom/Yolov5_StrongSORT_OSNet.git  # clone repo\n","%cd /content/Yolov5_StrongSORT_OSNet\n","%pip install -qr requirements.txt  # install dependencies\n","\n","import torch\n","from IPython.display import Image, clear_output  # to display images\n","\n","#clear_output()\n","print(f\"Setup complete. Using torch {torch.__version__} ({torch.cuda.get_device_properties(0).name if torch.cuda.is_available() else 'CPU'})\")"]},{"cell_type":"markdown","metadata":{"id":"tQ6AyPpcq1Dk"},"source":["# Download data\n","\n","Get test video from repo and extract the first 2 seconds of it "]},{"cell_type":"code","execution_count":3,"metadata":{"colab":{"base_uri":"https://localhost:8080/"},"executionInfo":{"elapsed":2354,"status":"ok","timestamp":1662348422899,"user":{"displayName":"Viet-Tham Huynh","userId":"03444116876260486916"},"user_tz":-420},"id":"A1nZRlGlhdm_","outputId":"14b8cb31-f53b-49f8-df48-1751336fba98"},"outputs":[{"name":"stdout","output_type":"stream","text":["ffmpeg version 3.4.11-0ubuntu0.1 Copyright (c) 2000-2022 the FFmpeg developers\n","  built with gcc 7 (Ubuntu 7.5.0-3ubuntu1~18.04)\n","  configuration: --prefix=/usr --extra-version=0ubuntu0.1 --toolchain=hardened --libdir=/usr/lib/x86_64-linux-gnu --incdir=/usr/include/x86_64-linux-gnu --enable-gpl --disable-stripping --enable-avresample --enable-avisynth --enable-gnutls --enable-ladspa --enable-libass --enable-libbluray --enable-libbs2b --enable-libcaca --enable-libcdio --enable-libflite --enable-libfontconfig --enable-libfreetype --enable-libfribidi --enable-libgme --enable-libgsm --enable-libmp3lame --enable-libmysofa --enable-libopenjpeg --enable-libopenmpt --enable-libopus --enable-libpulse --enable-librubberband --enable-librsvg --enable-libshine --enable-libsnappy --enable-libsoxr --enable-libspeex --enable-libssh --enable-libtheora --enable-libtwolame --enable-libvorbis --enable-libvpx --enable-libwavpack --enable-libwebp --enable-libx265 --enable-libxml2 --enable-libxvid --enable-libzmq --enable-libzvbi --enable-omx --enable-openal --enable-opengl --enable-sdl2 --enable-libdc1394 --enable-libdrm --enable-libiec61883 --enable-chromaprint --enable-frei0r --enable-libopencv --enable-libx264 --enable-shared\n","  libavutil      55. 78.100 / 55. 78.100\n","  libavcodec     57.107.100 / 57.107.100\n","  libavformat    57. 83.100 / 57. 83.100\n","  libavdevice    57. 10.100 / 57. 10.100\n","  libavfilter     6.107.100 /  6.107.100\n","  libavresample   3.  7.  0 /  3.  7.  0\n","  libswscale      4.  8.100 /  4.  8.100\n","  libswresample   2.  9.100 /  2.  9.100\n","  libpostproc    54.  7.100 / 54.  7.100\n","Input #0, mov,mp4,m4a,3gp,3g2,mj2, from '/content/drive/MyDrive/2022_Selab/MediaEval/code/VISEM_Tracking_Train_v4/Train/60/60.mp4':\n","  Metadata:\n","    major_brand     : isom\n","    minor_version   : 512\n","    compatible_brands: isomiso2avc1mp41\n","    encoder         : Lavf59.5.101\n","  Duration: 00:00:30.00, start: 0.000000, bitrate: 1158 kb/s\n","    Stream #0:0(und): Video: h264 (Constrained Baseline) (avc1 / 0x31637661), yuvj420p(pc, bt470bg/unknown/unknown), 640x480, 1156 kb/s, 49 fps, 49 tbr, 12544 tbn, 98 tbc (default)\n","    Metadata:\n","      handler_name    : VideoHandler\n","Output #0, avi, to 'outvideo60.avi':\n","  Metadata:\n","    major_brand     : isom\n","    minor_version   : 512\n","    compatible_brands: isomiso2avc1mp41\n","    ISFT            : Lavf57.83.100\n","    Stream #0:0(und): Video: h264 (Constrained Baseline) (avc1 / 0x31637661), yuvj420p(pc, bt470bg/unknown/unknown), 640x480, q=2-31, 1156 kb/s, 49 fps, 49 tbr, 98 tbn, 98 tbc (default)\n","    Metadata:\n","      handler_name    : VideoHandler\n","Stream mapping:\n","  Stream #0:0 -\u003e #0:0 (copy)\n","Press [q] to stop, [?] for help\n","frame=  980 fps=0.0 q=-1.0 Lsize=    2940kB time=00:00:19.98 bitrate=1204.9kbits/s speed=2.17e+03x    \n","video:2888kB audio:0kB subtitle:0kB other streams:0kB global headers:0kB muxing overhead: 1.800819%\n"]}],"source":["# extract 3 seconds worth of video frames of it\n","!yes | ffmpeg -ss 00:00:00 -i '/content/drive/MyDrive/2022_Selab/MediaEval/code/VISEM_Tracking_Train_v4/Train/60/60.mp4' -t 00:00:20 -c copy outvideo60.avi"]},{"cell_type":"code","execution_count":4,"metadata":{"colab":{"base_uri":"https://localhost:8080/"},"executionInfo":{"elapsed":74376,"status":"ok","timestamp":1662348536931,"user":{"displayName":"Viet-Tham Huynh","userId":"03444116876260486916"},"user_tz":-420},"id":"QXztwEHErBGx","outputId":"1118eb21-8995-4d45-8ac1-f07e5cee0f79"},"outputs":[{"name":"stdout","output_type":"stream","text":["strong_sort/deep/reid/torchreid/metrics/rank.py:12: UserWarning: Cython evaluation (very fast so highly recommended) is unavailable, now use python evaluation.\n","  'Cython evaluation (very fast so highly recommended) is '\n","Downloading...\n","From: https://drive.google.com/uc?id=1Kkx2zW89jq_NETu4u42CFZTMVD5Hwm6e\n","To: /content/Yolov5_StrongSORT_OSNet/osnet_x0_25_msmt17.pt\n","100% 9.34M/9.34M [00:00\u003c00:00, 139MB/s]\n","Model: osnet_x0_25\n","- params: 203,568\n","- flops: 82,316,000\n","Successfully loaded pretrained weights from \"osnet_x0_25_msmt17.pt\"\n","** The following layers are discarded due to unmatched keys or layer size: ['classifier.weight', 'classifier.bias']\n"]}],"source":["!python track.py --yolo-weights '/content/drive/MyDrive/2022_Selab/MediaEval/code/yolov5/runs/train/exp/weights/best.pt' --strong-sort-weights osnet_x0_25_msmt17.pt --source outvideo60.avi --save-vid"]},{"cell_type":"markdown","metadata":{"id":"lBvaS8RZrH-B"},"source":["# Show results\n","\n","https://stackoverflow.com/questions/60977179/how-to-play-avi-file-in-google-colab\n","\n","Convert avi to mp4"]},{"cell_type":"code","execution_count":5,"metadata":{"colab":{"base_uri":"https://localhost:8080/"},"executionInfo":{"elapsed":14345,"status":"ok","timestamp":1662348594574,"user":{"displayName":"Viet-Tham Huynh","userId":"03444116876260486916"},"user_tz":-420},"id":"eKzsZOO1rIY_","outputId":"463c117a-a612-4cb8-eb8f-8629581700d6"},"outputs":[{"name":"stdout","output_type":"stream","text":["ffmpeg version 3.4.11-0ubuntu0.1 Copyright (c) 2000-2022 the FFmpeg developers\n","  built with gcc 7 (Ubuntu 7.5.0-3ubuntu1~18.04)\n","  configuration: --prefix=/usr --extra-version=0ubuntu0.1 --toolchain=hardened --libdir=/usr/lib/x86_64-linux-gnu --incdir=/usr/include/x86_64-linux-gnu --enable-gpl --disable-stripping --enable-avresample --enable-avisynth --enable-gnutls --enable-ladspa --enable-libass --enable-libbluray --enable-libbs2b --enable-libcaca --enable-libcdio --enable-libflite --enable-libfontconfig --enable-libfreetype --enable-libfribidi --enable-libgme --enable-libgsm --enable-libmp3lame --enable-libmysofa --enable-libopenjpeg --enable-libopenmpt --enable-libopus --enable-libpulse --enable-librubberband --enable-librsvg --enable-libshine --enable-libsnappy --enable-libsoxr --enable-libspeex --enable-libssh --enable-libtheora --enable-libtwolame --enable-libvorbis --enable-libvpx --enable-libwavpack --enable-libwebp --enable-libx265 --enable-libxml2 --enable-libxvid --enable-libzmq --enable-libzvbi --enable-omx --enable-openal --enable-opengl --enable-sdl2 --enable-libdc1394 --enable-libdrm --enable-libiec61883 --enable-chromaprint --enable-frei0r --enable-libopencv --enable-libx264 --enable-shared\n","  libavutil      55. 78.100 / 55. 78.100\n","  libavcodec     57.107.100 / 57.107.100\n","  libavformat    57. 83.100 / 57. 83.100\n","  libavdevice    57. 10.100 / 57. 10.100\n","  libavfilter     6.107.100 /  6.107.100\n","  libavresample   3.  7.  0 /  3.  7.  0\n","  libswscale      4.  8.100 /  4.  8.100\n","  libswresample   2.  9.100 /  2.  9.100\n","  libpostproc    54.  7.100 / 54.  7.100\n","Input #0, mov,mp4,m4a,3gp,3g2,mj2, from '/content/Yolov5_StrongSORT_OSNet/runs/track/exp/outvideo60.mp4':\n","  Metadata:\n","    major_brand     : isom\n","    minor_version   : 512\n","    compatible_brands: isomiso2mp41\n","    encoder         : Lavf58.76.100\n","  Duration: 00:00:10.00, start: 0.000000, bitrate: 8751 kb/s\n","    Stream #0:0(und): Video: mpeg4 (Simple Profile) (mp4v / 0x7634706D), yuv420p, 640x480 [SAR 1:1 DAR 4:3], 8746 kb/s, 98 fps, 98 tbr, 12544 tbn, 98 tbc (default)\n","    Metadata:\n","      handler_name    : VideoHandler\n","Stream mapping:\n","  Stream #0:0 -\u003e #0:0 (mpeg4 (native) -\u003e h264 (libx264))\n","Press [q] to stop, [?] for help\n","\u001b[1;36m[libx264 @ 0x55a523540800] \u001b[0musing SAR=1/1\n","\u001b[1;36m[libx264 @ 0x55a523540800] \u001b[0musing cpu capabilities: MMX2 SSE2Fast SSSE3 SSE4.2 AVX FMA3 BMI2 AVX2\n","\u001b[1;36m[libx264 @ 0x55a523540800] \u001b[0mprofile High, level 3.2\n","\u001b[1;36m[libx264 @ 0x55a523540800] \u001b[0m264 - core 152 r2854 e9a5903 - H.264/MPEG-4 AVC codec - Copyleft 2003-2017 - http://www.videolan.org/x264.html - options: cabac=1 ref=3 deblock=1:0:0 analyse=0x3:0x113 me=hex subme=7 psy=1 psy_rd=1.00:0.00 mixed_ref=1 me_range=16 chroma_me=1 trellis=1 8x8dct=1 cqm=0 deadzone=21,11 fast_pskip=1 chroma_qp_offset=-2 threads=3 lookahead_threads=1 sliced_threads=0 nr=0 decimate=1 interlaced=0 bluray_compat=0 constrained_intra=0 bframes=3 b_pyramid=2 b_adapt=1 b_bias=0 direct=1 weightb=1 open_gop=0 weightp=2 keyint=250 keyint_min=25 scenecut=40 intra_refresh=0 rc_lookahead=40 rc=crf mbtree=1 crf=23.0 qcomp=0.60 qpmin=0 qpmax=69 qpstep=4 ip_ratio=1.40 aq=1:1.00\n","Output #0, mp4, to 'outputVideo60.mp4':\n","  Metadata:\n","    major_brand     : isom\n","    minor_version   : 512\n","    compatible_brands: isomiso2mp41\n","    encoder         : Lavf57.83.100\n","    Stream #0:0(und): Video: h264 (libx264) (avc1 / 0x31637661), yuv420p, 640x480 [SAR 1:1 DAR 4:3], q=-1--1, 98 fps, 12544 tbn, 98 tbc (default)\n","    Metadata:\n","      handler_name    : VideoHandler\n","      encoder         : Lavc57.107.100 libx264\n","    Side data:\n","      cpb: bitrate max/min/avg: 0/0/0 buffer size: 0 vbv_delay: -1\n","frame=  980 fps= 79 q=-1.0 Lsize=    2064kB time=00:00:09.96 bitrate=1696.4kbits/s speed= 0.8x    \n","video:2053kB audio:0kB subtitle:0kB other streams:0kB global headers:0kB muxing overhead: 0.565902%\n","\u001b[1;36m[libx264 @ 0x55a523540800] \u001b[0mframe I:4     Avg QP:23.30  size: 16819\n","\u001b[1;36m[libx264 @ 0x55a523540800] \u001b[0mframe P:373   Avg QP:24.89  size:  3768\n","\u001b[1;36m[libx264 @ 0x55a523540800] \u001b[0mframe B:603   Avg QP:31.49  size:  1043\n","\u001b[1;36m[libx264 @ 0x55a523540800] \u001b[0mconsecutive B-frames: 11.7% 13.9% 14.4% 60.0%\n","\u001b[1;36m[libx264 @ 0x55a523540800] \u001b[0mmb I  I16..4:  4.0% 88.0%  8.0%\n","\u001b[1;36m[libx264 @ 0x55a523540800] \u001b[0mmb P  I16..4:  0.8%  9.3%  0.5%  P16..4: 27.2%  5.0%  3.7%  0.0%  0.0%    skip:53.5%\n","\u001b[1;36m[libx264 @ 0x55a523540800] \u001b[0mmb B  I16..4:  0.4%  0.6%  0.1%  B16..8: 29.5%  1.6%  0.3%  direct: 1.0%  skip:66.5%  L0:47.0% L1:51.9% BI: 1.2%\n","\u001b[1;36m[libx264 @ 0x55a523540800] \u001b[0m8x8 transform intra:82.8% inter:77.2%\n","\u001b[1;36m[libx264 @ 0x55a523540800] \u001b[0mcoded y,uvDC,uvAC intra: 64.8% 41.3% 11.7% inter: 4.5% 8.3% 5.7%\n","\u001b[1;36m[libx264 @ 0x55a523540800] \u001b[0mi16 v,h,dc,p: 12% 17% 66%  5%\n","\u001b[1;36m[libx264 @ 0x55a523540800] \u001b[0mi8 v,h,dc,ddl,ddr,vr,hd,vl,hu: 12% 13% 66%  2%  1%  1%  1%  1%  2%\n","\u001b[1;36m[libx264 @ 0x55a523540800] \u001b[0mi4 v,h,dc,ddl,ddr,vr,hd,vl,hu: 25% 17% 30%  5%  5%  4%  5%  6%  4%\n","\u001b[1;36m[libx264 @ 0x55a523540800] \u001b[0mi8c dc,h,v,p: 48% 31% 20%  1%\n","\u001b[1;36m[libx264 @ 0x55a523540800] \u001b[0mWeighted P-Frames: Y:0.0% UV:0.0%\n","\u001b[1;36m[libx264 @ 0x55a523540800] \u001b[0mref P L0: 63.3%  7.9% 18.2% 10.6%\n","\u001b[1;36m[libx264 @ 0x55a523540800] \u001b[0mref B L0: 77.4% 17.1%  5.5%\n","\u001b[1;36m[libx264 @ 0x55a523540800] \u001b[0mref B L1: 93.1%  6.9%\n","\u001b[1;36m[libx264 @ 0x55a523540800] \u001b[0mkb/s:1681.15\n"]}],"source":["!ffmpeg -i /content/Yolov5_StrongSORT_OSNet/runs/track/exp/outvideo60.mp4 outputVideo60.mp4"]},{"cell_type":"markdown","metadata":{"id":"t9A1cya4rQuu"},"source":["Get the file content into data_url"]},{"cell_type":"code","execution_count":6,"metadata":{"executionInfo":{"elapsed":517,"status":"ok","timestamp":1662348599002,"user":{"displayName":"Viet-Tham Huynh","userId":"03444116876260486916"},"user_tz":-420},"id":"kAApQ43ErNwV"},"outputs":[],"source":["from IPython.display import HTML\n","from base64 import b64encode\n","mp4 = open('outputVideo60.mp4','rb').read()\n","data_url = \"data:video/mp4;base64,\" + b64encode(mp4).decode()"]},{"cell_type":"markdown","metadata":{"id":"ZHTj36K8rTQe"},"source":["Display it with HTML"]},{"cell_type":"code","execution_count":null,"metadata":{"colab":{"background_save":true,"output_embedded_package_id":"1w38gF6X-x-GtSPqElCrlQHCWciSU5aET"},"id":"0r9bGYe5rVl_","outputId":"8ec23098-cf6c-473b-aead-a73ebad676f5"},"outputs":[],"source":["HTML(\"\"\"\n","\u003cvideo controls\u003e\n","      \u003csource src=\"%s\" type=\"video/mp4\"\u003e\n","\u003c/video\u003e\n","\"\"\" % data_url)"]}],"metadata":{"accelerator":"GPU","colab":{"authorship_tag":"ABX9TyPeb4SY5OVn9S9YdT6HssaQ","name":"","version":""},"gpuClass":"standard","kernelspec":{"display_name":"Python 3","name":"python3"},"language_info":{"name":"python"}},"nbformat":4,"nbformat_minor":0}